<svg width="37" height="38" viewBox="0 0 37 38" fill="none" xmlns="http://www.w3.org/2000/svg">
<rect x="0.555664" width="36.4444" height="37.1882" rx="18.2222" fill="#9747FF"/>
<path d="M9.55566 18.5942C9.55566 14.2469 9.55566 12.0732 10.9062 10.7226C12.2568 9.37207 14.4305 9.37207 18.7778 9.37207C23.1252 9.37207 25.2989 9.37207 26.6494 10.7226C28 12.0732 28 14.2469 28 18.5942C28 22.9416 28 25.1153 26.6494 26.4658C25.2989 27.8164 23.1252 27.8164 18.7778 27.8164C14.4305 27.8164 12.2568 27.8164 10.9062 26.4658C9.55566 25.1153 9.55566 22.9416 9.55566 18.5942Z" stroke="white" stroke-width="2"/>
<path d="M21.69 18.5944H18.7777M18.7777 18.5944H15.8655M18.7777 18.5944V15.6821M18.7777 18.5944V21.5067" stroke="white" stroke-width="2" stroke-linecap="round"/>
</svg>
