<svg width="55" height="57" viewBox="0 0 55 57" fill="none" xmlns="http://www.w3.org/2000/svg">
<rect width="55" height="57" rx="27.5" fill="#B2E335"/>
<path d="M17.8125 13C16.8438 15.9062 16.8438 20.75 16.8438 20.75C16.8438 26.6352 21.6148 31.4062 27.5 31.4062C33.3852 31.4062 38.1562 26.6352 38.1562 20.75C38.1562 20.75 38.1562 15.9062 37.1875 13H17.8125Z" fill="white"/>
<path d="M27.4997 29.4116C32.5345 29.4116 36.6174 25.3287 36.6174 20.2939H18.3821C18.3821 25.3287 22.465 29.4116 27.4997 29.4116Z" fill="#74DC42"/>
<path d="M30.7825 41.4845H28.5942V29.4119C28.2332 29.4483 27.8699 29.4722 27.5001 29.4722C27.1303 29.4722 26.7671 29.4483 26.406 29.4119V41.4845H24.2178C23.6374 41.4845 23.0808 41.7495 22.6705 42.2213C22.2601 42.6931 22.0295 43.3329 22.0295 44.0001H32.9707C32.9707 43.3329 32.7402 42.6931 32.3298 42.2213C31.9194 41.7495 31.3628 41.4845 30.7825 41.4845Z" fill="white"/>
<path d="M20.2061 13H22.0296V20.2941H20.2061V13Z" fill="#DEC5FF"/>
<path d="M20.2061 23.4851C20.2061 23.606 20.3021 23.722 20.4731 23.8075C20.6441 23.893 20.876 23.941 21.1178 23.941C21.3596 23.941 21.5915 23.893 21.7625 23.8075C21.9335 23.722 22.0296 23.606 22.0296 23.4851V20.2939H20.2061V23.4851Z" fill="#DEC5FF"/>
</svg>
