<svg width="12" height="13" viewBox="0 0 12 13" fill="none" xmlns="http://www.w3.org/2000/svg">
<path fill-rule="evenodd" clip-rule="evenodd" d="M0 2.28246C0 1.29803 0.805887 0.5 1.8 0.5H10.2C11.1941 0.5 12 1.29803 12 2.28246V8.53C12 9.34541 11.3325 10.0064 10.509 10.0064C10.3189 10.0064 10.1799 10.184 10.2273 10.3663L10.264 10.5078C10.6492 11.9911 8.90162 13.1029 7.69936 12.1394L5.20272 10.1387C5.09591 10.0531 4.96267 10.0064 4.82528 10.0064H1.8C0.805887 10.0064 0 9.2084 0 8.22397V2.28246ZM1.8 1.6883C1.46863 1.6883 1.2 1.95431 1.2 2.28246V8.22397C1.2 8.55211 1.46863 8.81812 1.8 8.81812H4.82528C5.23747 8.81812 5.63718 8.95822 5.9576 9.21499L8.45424 11.2157C8.75781 11.459 9.19905 11.1782 9.1018 10.8037L9.06506 10.6622C8.82247 9.72802 9.53494 8.81812 10.509 8.81812C10.6697 8.81812 10.8 8.68913 10.8 8.53V2.28246C10.8 1.95431 10.5314 1.6883 10.2 1.6883H1.8Z" fill="#747474"/>
</svg>
