<svg width="12" height="25" viewBox="0 0 12 25" fill="none" xmlns="http://www.w3.org/2000/svg">
<path d="M0.5 5.63169C0.5 4.21817 1.03632 3.00951 2.10896 2.00571C3.18159 1.0019 4.47313 0.5 5.98358 0.5C7.49403 0.5 8.78557 1.0019 9.85821 2.00571C10.9308 3.00951 11.4781 4.21817 11.5 5.63169C11.5 5.79558 11.4781 5.93898 11.4343 6.0619L9.62836 12.73C9.56269 13.6314 9.1796 14.3894 8.4791 15.004C7.77861 15.6185 6.94677 15.9258 5.98358 15.9258C5.04229 15.9258 4.22139 15.6288 3.5209 15.0347C2.8204 14.4406 2.42637 13.7031 2.33881 12.8222C2.1199 12.2076 1.89005 11.5316 1.64925 10.7941C1.40846 10.0566 1.15672 9.1655 0.89403 8.12072C0.631343 7.07594 0.5 6.24627 0.5 5.63169ZM2.30597 21.0575C2.30597 20.1152 2.66716 19.3162 3.38955 18.6607C4.11194 18.0051 4.97662 17.6671 5.98358 17.6466C6.99055 17.6261 7.85522 17.9641 8.57761 18.6607C9.3 19.3572 9.66119 20.1561 9.66119 21.0575C9.66119 22.0203 9.3 22.8295 8.57761 23.4851C7.85522 24.1406 6.99055 24.4786 5.98358 24.4991C4.97662 24.5196 4.11194 24.1816 3.38955 23.4851C2.66716 22.7886 2.30597 21.9794 2.30597 21.0575Z" fill="#9747FF"/>
</svg>
