<svg width="14" height="13" viewBox="0 0 14 13" fill="none" xmlns="http://www.w3.org/2000/svg">
<circle cx="3.64632" cy="2.67513" r="1.90999" fill="#9747FF"/>
<path d="M7.2927 6.3216C7.2927 7.37646 5.66017 9.09977 3.64635 9.09977C1.63253 9.09977 0 7.37646 0 6.3216C0 5.26674 1.63253 5.27979 3.64635 5.27979C5.66017 5.27979 7.2927 5.26674 7.2927 6.3216Z" fill="#9747FF"/>
<circle cx="10.3536" cy="5.81063" r="1.90999" fill="#9747FF"/>
<path d="M14 9.45685C14 10.5117 12.3674 12.235 10.3536 12.235C8.3398 12.235 6.70728 10.5117 6.70728 9.45685C6.70728 8.40199 8.3398 8.41504 10.3536 8.41504C12.3674 8.41504 14 8.40199 14 9.45685Z" fill="#9747FF"/>
</svg>
