<svg width="11" height="15" viewBox="0 0 11 15" fill="none" xmlns="http://www.w3.org/2000/svg">
<path d="M0.812499 0C0.34375 1.40625 0.34375 3.74999 0.34375 3.74999C0.34375 6.59764 2.65234 8.90623 5.49999 8.90623C8.34764 8.90623 10.6562 6.59764 10.6562 3.74999C10.6562 3.74999 10.6562 1.40625 10.1875 0H0.812499Z" fill="white"/>
<path d="M5.49989 7.94105C7.93606 7.94105 9.91165 5.96547 9.91165 3.5293H1.08813C1.08813 5.96547 3.06372 7.94105 5.49989 7.94105Z" fill="#74DC42"/>
<path d="M7.08832 13.7828H6.02949V7.94116C5.85479 7.95881 5.67902 7.97038 5.50008 7.97038C5.32114 7.97038 5.14538 7.95881 4.97067 7.94116V13.7828H3.91185C3.63103 13.7828 3.36172 13.911 3.16315 14.1393C2.96458 14.3675 2.85303 14.6771 2.85303 15H8.14714C8.14714 14.6771 8.03558 14.3675 7.83702 14.1393C7.63845 13.911 7.36913 13.7828 7.08832 13.7828Z" fill="white"/>
<path d="M1.9707 0H2.85305V3.52941H1.9707V0Z" fill="#DEC5FF"/>
<path d="M1.9707 5.07341C1.9707 5.13192 2.01718 5.18802 2.09992 5.22939C2.18266 5.27076 2.29487 5.294 2.41188 5.294C2.52889 5.294 2.6411 5.27076 2.72384 5.22939C2.80657 5.18802 2.85305 5.13192 2.85305 5.07341V3.5293H1.9707V5.07341Z" fill="#DEC5FF"/>
</svg>
