<svg width="21" height="24" viewBox="0 0 21 24" fill="none" xmlns="http://www.w3.org/2000/svg">
<circle cx="10.5" cy="5.5" r="5" stroke="white"/>
<path d="M20.5 16C20.5 16.6388 20.2491 17.4294 19.7452 18.2757C19.245 19.1159 18.5134 19.9799 17.6002 20.7586C15.7711 22.3184 13.2572 23.5 10.5 23.5C7.74275 23.5 5.22894 22.3184 3.39981 20.7586C2.48659 19.9799 1.75503 19.1159 1.25476 18.2757C0.750855 17.4294 0.5 16.6388 0.5 16C0.5 15.3935 0.723939 14.9699 1.13685 14.6407C1.57565 14.2909 2.25178 14.0308 3.17102 13.8517C4.9769 13.4997 7.48053 13.4999 10.3325 13.5C10.3882 13.5 10.444 13.5 10.5 13.5C10.556 13.5 10.6118 13.5 10.6675 13.5C13.5195 13.4999 16.0231 13.4997 17.829 13.8517C18.7482 14.0308 19.4244 14.2909 19.8632 14.6407C20.2761 14.9699 20.5 15.3935 20.5 16Z" stroke="white"/>
</svg>
