<svg width="38" height="33" viewBox="0 0 38 33" fill="none" xmlns="http://www.w3.org/2000/svg">
<circle cx="30.2265" cy="7.60342" r="1.3207" fill="#9747FF"/>
<circle cx="30.2265" cy="17.2885" r="1.3207" fill="#9747FF"/>
<path fill-rule="evenodd" clip-rule="evenodd" d="M20.4612 8.65412C20.7775 8.41283 20.9816 8.03196 20.9816 7.60342C20.9816 6.87401 20.3903 6.28271 19.6609 6.28271C18.9315 6.28271 18.3402 6.87401 18.3402 7.60342C18.3402 7.8465 18.4059 8.07425 18.5204 8.26988C18.7425 8.10048 19.0198 7.99988 19.3207 7.99988C19.807 7.99988 20.232 8.26273 20.4612 8.65412Z" fill="#9747FF"/>
<circle cx="24.9437" cy="12.0058" r="1.3207" fill="#9747FF"/>
<path d="M18.9378 2H31.83C34.0391 2 35.83 3.79086 35.83 6V18.8922C35.83 21.1013 34.0391 22.8922 31.83 22.8922H25.1637L25.3179 23.8922H31.83C34.5914 23.8922 36.83 21.6536 36.83 18.8922V6C36.83 3.23858 34.5914 1 31.83 1H18.9378C16.1764 1 13.9378 3.23857 13.9378 5.99999V7.77258L14.9378 7.61832V5.99999C14.9378 3.79086 16.7287 2 18.9378 2Z" fill="#9747FF"/>
<path d="M24.3061 23.8922L24.1519 22.8922M31.83 2H18.9378C16.7287 2 14.9378 3.79086 14.9378 5.99999V7.61832L13.9378 7.77258V5.99999C13.9378 3.23857 16.1764 1 18.9378 1H31.83C34.5914 1 36.83 3.23858 36.83 6V18.8922C36.83 21.6536 34.5914 23.8922 31.83 23.8922H25.3179L25.1637 22.8922H31.83C34.0391 22.8922 35.83 21.1013 35.83 18.8922V6C35.83 3.79086 34.0391 2 31.83 2Z" stroke="#9747FF"/>
<path fill-rule="evenodd" clip-rule="evenodd" d="M17.8355 8.18332L5.09401 10.1489C2.91069 10.4857 1.4138 12.5286 1.75061 14.7119L3.71615 27.4534C4.05295 29.6367 6.09591 31.1336 8.27922 30.7968L21.0207 28.8313C23.204 28.4945 24.7009 26.4515 24.3641 24.2682L22.3986 11.5267C22.0618 9.34341 20.0188 7.84652 17.8355 8.18332ZM4.94155 9.16055C2.21241 9.58156 0.341292 12.1353 0.762297 14.8644L2.72784 27.6059C3.14884 30.335 5.70254 32.2061 8.43168 31.7851L21.1732 29.8196C23.9023 29.3986 25.7734 26.8449 25.3524 24.1157L23.3869 11.3743C22.9659 8.64512 20.4122 6.77401 17.683 7.19501L4.94155 9.16055Z" fill="#9747FF" stroke="#9747FF"/>
<path d="M15.207 16.7993H9.98505V22.0212H15.207V16.7993Z" fill="#9747FF"/>
<path d="M17.818 16.7993L16.2514 18.3659V20.4547L17.818 22.0212H18.3401V16.7993H17.818Z" fill="#9747FF"/>
</svg>
