<svg width="28" height="28" viewBox="0 0 28 28" fill="none" xmlns="http://www.w3.org/2000/svg">
<path d="M20.5 2.73917C18.5878 1.63306 16.3678 1 14 1C6.82029 1 1 6.82029 1 14C1 16.0796 1.48831 18.0451 2.3565 19.7882C2.58722 20.2514 2.66401 20.7809 2.53026 21.2808L1.75596 24.1747C1.41984 25.4309 2.56911 26.5801 3.82535 26.2441L6.71921 25.4698C7.21911 25.336 7.74857 25.4128 8.21179 25.6434C9.95488 26.5117 11.9204 27 14 27C21.1796 27 27 21.1796 27 14C27 11.6322 26.3669 9.41213 25.2609 7.5" stroke="white" stroke-linecap="round"/>
</svg>
