<svg width="49" height="50" viewBox="0 0 49 50" fill="none" xmlns="http://www.w3.org/2000/svg">
<rect width="49" height="50" rx="24.5" fill="#9747FF"/>
<path d="M24.4129 33.2975L18.8961 23.5092C18.6789 23.1239 18.5874 22.6804 18.6286 22.2382L19.1594 16.7851C19.2372 15.916 20.0596 14.8686 21.156 14.6823C22.3171 14.4468 23.5656 15.1395 23.8873 16.2022L25.1419 19.6462C25.2647 19.9579 25.4915 20.1728 25.7759 20.2791C26.0494 20.3662 26.365 20.3406 26.6355 20.1881L30.7536 17.8671C31.5451 17.421 32.4002 17.3453 33.1051 17.6589C33.779 17.9646 34.2293 18.5994 34.3643 19.4247L35.9665 28.0298C36.3292 29.3995 35.525 31.135 34.1824 31.8917L30.2748 34.0941C29.6035 34.4724 28.5367 34.7817 27.8724 34.6102L26.0524 34.3793C25.3605 34.2995 24.7496 33.8949 24.4129 33.2975Z" fill="white"/>
<path d="M14.6495 23.4251L13.6175 24.0067C12.0645 24.882 11.759 25.8158 12.5627 27.2417L18.0252 36.9337C18.8288 38.3595 19.7858 38.5818 21.3389 37.7065L22.3709 37.1249C23.9239 36.2495 24.2293 35.3157 23.4257 33.8899L17.9632 24.1979C17.1596 22.772 16.2025 22.5498 14.6495 23.4251Z" fill="white"/>
</svg>
