<svg width="49" height="50" viewBox="0 0 49 50" fill="none" xmlns="http://www.w3.org/2000/svg">
<rect width="49" height="50" rx="24.5" fill="url(#paint0_linear_852_302)"/>
<circle cx="17.5531" cy="17.077" r="3.95642" fill="#D9D9D9"/>
<path d="M25.1063 24.6302C25.1063 26.8153 21.7247 30.385 17.5532 30.385C13.3817 30.385 10 26.8153 10 24.6302C10 22.4451 13.3817 22.4722 17.5532 22.4722C21.7247 22.4722 25.1063 22.4451 25.1063 24.6302Z" fill="#D9D9D9"/>
<circle cx="31.4467" cy="23.5717" r="3.95642" fill="#D9D9D9"/>
<path d="M38.9999 31.1248C38.9999 33.3099 35.6182 36.8796 31.4467 36.8796C27.2752 36.8796 23.8936 33.3099 23.8936 31.1248C23.8936 28.9398 27.2752 28.9668 31.4467 28.9668C35.6182 28.9668 38.9999 28.9398 38.9999 31.1248Z" fill="#D9D9D9"/>
<defs>
<linearGradient id="paint0_linear_852_302" x1="24.5" y1="0" x2="24.5" y2="50" gradientUnits="userSpaceOnUse">
<stop stop-color="#D62E4A"/>
<stop offset="1" stop-color="#8D4DC5"/>
</linearGradient>
</defs>
</svg>
