<svg width="49" height="50" viewBox="0 0 49 50" fill="none" xmlns="http://www.w3.org/2000/svg">
<rect width="49" height="50" rx="24.5" fill="#B2E335"/>
<path d="M24.28 17.8336C24.3684 16.3308 25.2215 12.8744 27.9265 11.071C30.6316 9.26765 32.2361 10.1428 32.7002 10.8058C33.0096 11.2699 33.4427 12.7285 32.7002 14.8501C33.4427 14.5849 34.7776 14.7396 35.3522 14.8501L34.4903 15.2479L35.3522 16.2424C34.3798 15.9109 32.0902 15.7651 30.7112 17.8336H27.9929C28.9211 17.2148 30.9233 15.4468 31.5068 13.3252C32.0902 11.2036 30.6891 11.4246 29.9156 11.8003C29.6725 11.8445 28.815 12.3175 27.3299 13.8556C25.8447 15.3938 25.8713 17.1485 26.0702 17.8336H24.28Z" fill="#D9D9D9"/>
<path d="M24.28 17.8336C24.3684 16.3308 25.2215 12.8744 27.9265 11.071C30.6316 9.26765 32.2361 10.1428 32.7002 10.8058C33.0096 11.2699 33.4427 12.7285 32.7002 14.8501C33.4427 14.5849 34.7776 14.7396 35.3522 14.8501L34.4903 15.2479L35.3522 16.2424C34.3798 15.9109 32.0902 15.7651 30.7112 17.8336H27.9929C28.9211 17.2148 30.9233 15.4468 31.5068 13.3252C32.0902 11.2036 30.6891 11.4246 29.9156 11.8003C29.6725 11.8445 28.815 12.3175 27.3299 13.8556C25.8447 15.3938 25.8713 17.1485 26.0702 17.8336H24.28Z" fill="url(#paint0_linear_852_312)"/>
<path d="M26.2028 17.8336C26.1144 16.3308 25.2613 12.8744 22.5562 11.071C19.8512 9.26765 18.2467 10.1428 17.7826 10.8058C17.4732 11.2699 17.0401 12.7285 17.7826 14.8501C17.0401 14.5849 15.7052 14.7396 15.1306 14.8501L15.9925 15.2479L15.1306 16.2424C16.103 15.9109 18.3926 15.7651 19.7716 17.8336H22.4899C21.5617 17.2148 19.5595 15.4468 18.976 13.3252C18.3926 11.2036 19.7937 11.4246 20.5672 11.8003C20.8103 11.8445 21.6678 12.3175 23.1529 13.8556C24.6381 15.3938 24.6116 17.1485 24.4127 17.8336H26.2028Z" fill="#D9D9D9"/>
<path d="M26.2028 17.8336C26.1144 16.3308 25.2613 12.8744 22.5562 11.071C19.8512 9.26765 18.2467 10.1428 17.7826 10.8058C17.4732 11.2699 17.0401 12.7285 17.7826 14.8501C17.0401 14.5849 15.7052 14.7396 15.1306 14.8501L15.9925 15.2479L15.1306 16.2424C16.103 15.9109 18.3926 15.7651 19.7716 17.8336H22.4899C21.5617 17.2148 19.5595 15.4468 18.976 13.3252C18.3926 11.2036 19.7937 11.4246 20.5672 11.8003C20.8103 11.8445 21.6678 12.3175 23.1529 13.8556C24.6381 15.3938 24.6116 17.1485 24.4127 17.8336H26.2028Z" fill="url(#paint1_linear_852_312)"/>
<path d="M35.1832 17.9998H13.8168C12.2369 17.9998 10.966 19.2745 11.0007 20.8243L11.3694 37.2966C11.4031 38.799 12.654 39.9998 14.1855 39.9998H34.5686C36.0842 39.9998 37.3281 38.8231 37.3835 37.337L37.9981 20.8647C38.0565 19.2997 36.7792 17.9998 35.1832 17.9998Z" fill="url(#paint2_linear_852_312)"/>
<path d="M25 39.9998L26.5152 17.9998H30L28.4848 39.9998H25Z" fill="url(#paint3_linear_852_312)"/>
<path d="M11.2005 26.3425L37.6593 28.1025L37.6271 31.5872L11.1682 29.8272L11.2005 26.3425Z" fill="url(#paint4_linear_852_312)"/>
<path d="M24 39.9998L22.4848 17.9998H19L20.5152 39.9998H24Z" fill="url(#paint5_linear_852_312)"/>
<defs>
<linearGradient id="paint0_linear_852_312" x1="29.8161" y1="10" x2="29.8161" y2="17.8336" gradientUnits="userSpaceOnUse">
<stop stop-color="#0369B3"/>
<stop offset="1" stop-color="#003A82"/>
</linearGradient>
<linearGradient id="paint1_linear_852_312" x1="20.6667" y1="10" x2="20.6667" y2="17.8336" gradientUnits="userSpaceOnUse">
<stop stop-color="#0369B3"/>
<stop offset="1" stop-color="#003A82"/>
</linearGradient>
<linearGradient id="paint2_linear_852_312" x1="24.5212" y1="17.9998" x2="24.5212" y2="39.9998" gradientUnits="userSpaceOnUse">
<stop stop-color="#74DC42"/>
<stop offset="1" stop-color="#0AAB9C"/>
</linearGradient>
<linearGradient id="paint3_linear_852_312" x1="27.5" y1="17.9998" x2="27.5" y2="39.9998" gradientUnits="userSpaceOnUse">
<stop stop-color="#0369B3"/>
<stop offset="1" stop-color="#003A82"/>
</linearGradient>
<linearGradient id="paint4_linear_852_312" x1="37.6502" y1="29.0873" x2="11.1773" y2="28.8424" gradientUnits="userSpaceOnUse">
<stop stop-color="#0369B3"/>
<stop offset="1" stop-color="#003A82"/>
</linearGradient>
<linearGradient id="paint5_linear_852_312" x1="21.5" y1="17.9998" x2="21.5" y2="39.9998" gradientUnits="userSpaceOnUse">
<stop stop-color="#0369B3"/>
<stop offset="1" stop-color="#003A82"/>
</linearGradient>
</defs>
</svg>
