<svg width="12" height="13" viewBox="0 0 12 13" fill="none" xmlns="http://www.w3.org/2000/svg">
<path fill-rule="evenodd" clip-rule="evenodd" d="M7.81807 1.51031C7.51287 1.43491 7.19089 1.53648 6.98621 1.77268L3.65421 5.61772V11.5142H9.37497C9.77087 11.5142 10.1117 11.2379 10.1894 10.8538L10.9867 6.91083C11.0894 6.4025 10.6964 5.92826 10.1723 5.92826H7.14232C6.95854 5.92826 6.78969 5.82821 6.70298 5.66795C6.61626 5.50768 6.62577 5.31322 6.72771 5.16197L8.3394 2.77079C8.3394 2.77078 8.33941 2.77077 8.33941 2.77077C8.65794 2.29808 8.40694 1.65594 7.84977 1.51816L7.81822 1.51035C7.81821 1.51035 7.8182 1.51034 7.81819 1.51034C7.81815 1.51033 7.81811 1.51032 7.81807 1.51031ZM2.65761 11.5142V5.92827L0.996602 5.92826V11.5142H2.65761ZM2.92672 4.94251L6.22953 1.13116C6.67992 0.611423 7.38848 0.388003 8.05991 0.554016L8.09148 0.561833C9.31729 0.864951 9.86942 2.27771 9.16865 3.31755L9.16863 3.31757L8.07341 4.9425H10.1723C11.3252 4.9425 12.19 5.98582 11.9639 7.10413L11.1666 11.0472C10.9958 11.8919 10.2459 12.5 9.37497 12.5H0.498301C0.223097 12.5 0 12.2793 0 12.0071V5.43538C0 5.30466 0.0524998 5.17929 0.14595 5.08686C0.2394 4.99443 0.366146 4.9425 0.498304 4.9425L2.92672 4.94251Z" fill="#747474"/>
</svg>
