<svg width="18" height="12" viewBox="0 0 18 12" fill="none" xmlns="http://www.w3.org/2000/svg">
<path d="M9.62366 1C11.0044 1 12.1237 2.11929 12.1237 3.5V8.5C12.1237 9.88071 11.0044 11 9.62366 11H3.62366C2.24295 11 1.12366 9.88071 1.12366 8.5V3.5C1.12366 2.11929 2.24295 1 3.62366 1H9.62366Z" stroke="white"/>
<path d="M16.4469 1.25876C16.4941 1.21157 16.5581 1.18506 16.6248 1.18506C16.7638 1.18506 16.8764 1.29772 16.8764 1.43669V10.5631C16.8764 10.7021 16.7638 10.8147 16.6248 10.8147C16.5581 10.8147 16.4941 10.7882 16.4469 10.741L14.3568 8.65094C13.888 8.1821 13.6246 7.54622 13.6246 6.88318V5.1166C13.6246 4.45356 13.888 3.81767 14.3568 3.34883L16.4469 1.25876Z" stroke="white"/>
</svg>
