<svg width="37" height="38" viewBox="0 0 37 38" fill="none" xmlns="http://www.w3.org/2000/svg">
<rect width="36.4444" height="37.1882" rx="18.2222" fill="#9747FF"/>
<path d="M18.2222 11.1071C19.7539 11.1071 21.2228 11.648 22.3058 12.6107C23.3888 13.5733 23.9972 14.879 23.9972 16.2404C23.9972 18.3463 24.4732 19.9232 25.0905 21.0828C25.8791 22.5644 26.2734 23.3052 26.2515 23.4743C26.2259 23.6719 26.1933 23.7262 26.031 23.8415C25.8918 23.9404 25.1998 23.9404 23.8156 23.9404H12.6288C11.2447 23.9404 10.5526 23.9404 10.4135 23.8415C10.2512 23.7262 10.2186 23.6719 10.193 23.4743C10.1711 23.3052 10.5654 22.5644 11.354 21.0828C11.9713 19.9232 12.4473 18.3463 12.4473 16.2404C12.4473 14.879 13.0557 13.5733 14.1387 12.6107C15.2217 11.648 16.6906 11.1071 18.2222 11.1071ZM18.2222 11.1071V8.96826M15.3925 27.1487C16.1477 27.8153 17.1399 28.2199 18.2265 28.2199C19.3131 28.2199 20.3052 27.8153 21.0605 27.1487" stroke="white" stroke-width="2" stroke-linecap="round" stroke-linejoin="round"/>
</svg>
