<svg width="55" height="57" viewBox="0 0 55 57" fill="none" xmlns="http://www.w3.org/2000/svg">
<rect width="55" height="57" rx="27.5" fill="#9747FF"/>
<path d="M23.1397 25.8836C24.103 25.8836 24.8839 25.0376 24.8839 23.994C24.8839 22.9505 24.103 22.1045 23.1397 22.1045C22.1764 22.1045 21.3955 22.9505 21.3955 23.994C21.3955 25.0376 22.1764 25.8836 23.1397 25.8836Z" fill="white"/>
<path fill-rule="evenodd" clip-rule="evenodd" d="M26.2569 16H28.7431C30.4756 16 31.8535 16 32.9645 16.0923C34.1023 16.1867 35.0718 16.3844 35.9572 16.8444C37.3271 17.556 38.444 18.6729 39.1556 20.0427C39.6156 20.9282 39.8132 21.8976 39.9077 23.0355C40 24.1465 40 25.5243 40 27.2568V29.7431C40 30.6068 40 31.3825 39.9886 32.0807C40.0061 32.2096 40.0035 32.3407 39.9807 32.4688C39.9676 33.0155 39.9453 33.5121 39.9077 33.9645C39.8132 35.1024 39.6156 36.0719 39.1556 36.9573C38.444 38.3271 37.3271 39.444 35.9572 40.1556C35.0718 40.6156 34.1023 40.8133 32.9645 40.9078C31.8535 41 30.4756 41 28.7432 41H26.2569C24.5244 41 23.1465 41 22.0355 40.9078C20.8976 40.8133 19.9282 40.6156 19.0427 40.1556C18.0484 39.6391 17.1874 38.9091 16.518 38.0239C16.5053 38.0078 16.493 37.9915 16.4812 37.9749C16.2432 37.6548 16.03 37.3146 15.8444 36.9573C15.3844 36.0719 15.1867 35.1024 15.0923 33.9645C15 32.8535 15 31.4756 15 29.7431V27.2569C15 25.5244 15 24.1465 15.0923 23.0355C15.1867 21.8976 15.3844 20.9282 15.8444 20.0427C16.556 18.6729 17.6729 17.556 19.0427 16.8444C19.9282 16.3844 20.8976 16.1867 22.0355 16.0923C23.1465 16 24.5243 16 26.2569 16ZM37.5 27.3125V29.1397L35.7662 27.3312C34.7785 26.3009 33.13 26.3052 32.1477 27.3409L26.314 33.4911L24.3942 31.1699C23.3666 29.9274 21.4488 29.9682 20.4751 31.2535L17.738 34.866C17.671 34.5579 17.6201 34.196 17.5837 33.7576C17.501 32.7621 17.5 31.4881 17.5 29.6875V27.3125C17.5 25.5119 17.501 24.2378 17.5837 23.2424C17.6651 22.2619 17.8192 21.6643 18.0629 21.1951C18.5373 20.2819 19.2819 19.5373 20.1951 19.0629C20.6643 18.8192 21.2619 18.6651 22.2424 18.5837C23.2378 18.501 24.5118 18.5 26.3125 18.5H28.6875C30.4881 18.5 31.7621 18.501 32.7576 18.5837C33.7381 18.6651 34.3357 18.8192 34.8048 19.0629C35.7181 19.5373 36.4627 20.2819 36.9371 21.1951C37.1807 21.6643 37.3348 22.2619 37.4163 23.2424C37.499 24.2378 37.5 25.5119 37.5 27.3125ZM20.1951 37.9371C19.8025 37.7331 19.441 37.4791 19.1187 37.1834L22.4677 32.7633L24.3875 35.0845C25.3436 36.2405 27.0955 36.3 28.1279 35.2116L33.9616 29.0613L37.4727 32.724C37.4603 33.1015 37.4423 33.4434 37.4163 33.7576C37.3348 34.7381 37.1807 35.3358 36.9371 35.8049C36.4627 36.7181 35.7181 37.4627 34.8048 37.9371C34.3357 38.1807 33.7381 38.3349 32.7576 38.4164C31.7621 38.499 30.4881 38.5 28.6875 38.5H26.3125C24.5118 38.5 23.2378 38.499 22.2424 38.4164C21.2619 38.3349 20.6643 38.1807 20.1951 37.9371Z" fill="white"/>
</svg>
