<svg width="11" height="13" viewBox="0 0 11 13" fill="none" xmlns="http://www.w3.org/2000/svg">
<path d="M7.6465 3.33669L7.35311 3.03916L7.00821 3.27505L5.47754 4.32195L7.05303 3.24437L7.36115 3.03363L7.24666 2.67832C7.19479 2.51734 7.16665 2.34546 7.16665 2.16666C7.16665 1.24619 7.91286 0.5 8.83332 0.5C9.75379 0.5 10.5 1.24619 10.5 2.16666C10.5 3.08714 9.75379 3.83334 8.83332 3.83334C8.3685 3.83334 7.9491 3.64357 7.6465 3.33669ZM3.4724 5.13091L3.76195 5.49533L3.73597 5.51309L3.80081 5.83725C3.82212 5.94376 3.83335 6.05392 3.83335 6.16668C3.83335 6.38985 3.7895 6.60227 3.71034 6.79622L3.55521 7.1763L3.54905 7.17224L3.2624 7.42249C2.9693 7.67837 2.58654 7.83333 2.16666 7.83333C1.24619 7.83333 0.5 7.08712 0.5 6.16668C0.5 5.24619 1.2462 4.5 2.16666 4.5C2.69569 4.5 3.16649 4.74588 3.4724 5.13091ZM7.31016 10.1557L7.48272 9.76848L7.49378 9.77577L7.77863 9.54281C8.06608 9.3077 8.43277 9.16664 8.83332 9.16664C9.75378 9.16664 10.5 9.91284 10.5 10.8334C10.5 11.7538 9.75379 12.5 8.83332 12.5C7.91285 12.5 7.16665 11.7538 7.16665 10.8334C7.16665 10.5915 7.21807 10.3624 7.31016 10.1557Z" stroke="#747474"/>
</svg>
