<svg width="5" height="20" viewBox="0 0 5 20" fill="none" xmlns="http://www.w3.org/2000/svg">
<path d="M2.66685 4.13016C1.67436 4.13016 0.869836 3.32561 0.869836 2.33315C0.869836 1.34068 1.67436 0.536133 2.66685 0.536133C3.65934 0.536133 4.46387 1.34068 4.46387 2.33315C4.46387 3.32561 3.65934 4.13016 2.66685 4.13016Z" fill="#D9D9D9"/>
<path d="M2.66685 12.0618C1.67436 12.0618 0.869836 11.2573 0.869836 10.2648C0.869836 9.2723 1.67436 8.46777 2.66685 8.46777C3.65934 8.46777 4.46387 9.2723 4.46387 10.2648C4.46387 11.2573 3.65934 12.0618 2.66685 12.0618Z" fill="#D9D9D9"/>
<path d="M2.66685 19.8694C1.67436 19.8694 0.869836 19.0649 0.869836 18.0724C0.869836 17.0799 1.67436 16.2754 2.66685 16.2754C3.65934 16.2754 4.46387 17.0799 4.46387 18.0724C4.46387 19.0649 3.65934 19.8694 2.66685 19.8694Z" fill="#D9D9D9"/>
</svg>
