<svg width="54" height="57" viewBox="0 0 54 57" fill="none" xmlns="http://www.w3.org/2000/svg">
<rect y="0.441162" width="54" height="56.1176" rx="27" fill="#9747FF"/>
<path fill-rule="evenodd" clip-rule="evenodd" d="M26.9724 13.0005C26.991 13.0002 27.0096 13.0002 27.0282 13.0005C30.3817 13.0629 33.0517 15.8266 33.0002 19.1785V26.9315C33.0528 30.2843 30.3828 33.0495 27.0281 33.1118C27.0095 33.1122 26.991 33.1122 26.9724 33.1118C23.6179 33.0495 20.9474 30.2844 21.0003 26.9315V19.1785C20.9488 15.8265 23.6188 13.0629 26.9724 13.0005ZM27.0003 16.0006C25.3105 16.047 23.9702 17.4462 24 19.1398C24.0002 19.1486 24.0003 19.1574 24.0003 19.1662V26.9441C24.0003 26.9532 24.0002 26.9622 24 26.9712C23.9694 28.6653 25.3099 30.0654 27.0003 30.1117C28.6904 30.0654 30.031 28.6654 30.0005 26.9711C30.0004 26.9669 30.0003 26.9627 30.0003 26.9584C30.0003 26.9537 30.0002 26.9489 30.0002 26.9441V19.1662C30.0002 19.1574 30.0003 19.1486 30.0005 19.1398C30.0303 17.4462 28.69 16.047 27.0003 16.0006Z" fill="white"/>
<path d="M18.925 32.2066C18.2727 31.696 17.3299 31.8108 16.8192 32.4632C16.3085 33.1154 16.4233 34.0582 17.0756 34.569L18.925 32.2066ZM36.9248 34.569C37.5772 34.0582 37.692 33.1154 37.1814 32.4632C36.6706 31.8108 35.7278 31.696 35.0756 32.2066L36.9248 34.569ZM28.5002 36.4998C28.5002 35.6714 27.8286 34.9998 27.0003 34.9998C26.1719 34.9998 25.5003 35.6714 25.5003 36.4998H28.5002ZM25.5003 42.4997C25.5003 43.3281 26.1719 43.9997 27.0003 43.9997C27.8286 43.9997 28.5002 43.3281 28.5002 42.4997H25.5003ZM17.0756 34.569C22.9051 39.1326 31.0954 39.1326 36.9248 34.569L35.0756 32.2066C30.3324 35.92 23.6681 35.92 18.925 32.2066L17.0756 34.569ZM25.5003 36.4998V42.4997H28.5002V36.4998H25.5003Z" fill="white"/>
</svg>
